<?xml version="1.0" encoding="UTF-8" standalone="no"?>
<!DOCTYPE svg PUBLIC "-//W3C//DTD SVG 1.1//EN"
 "http://www.w3.org/Graphics/SVG/1.1/DTD/svg11.dtd">
<!-- Generated by graphviz version 2.38.0 (20140413.2041)
 -->
<!-- Title: G Pages: 1 -->
<svg width="1302pt" height="304pt"
 viewBox="0.00 0.00 1302.00 304.00" xmlns="http://www.w3.org/2000/svg" xmlns:xlink="http://www.w3.org/1999/xlink">
<g id="graph0" class="graph" transform="scale(1 1) rotate(0) translate(4 300)">
<title>G</title>
<polygon fill="white" stroke="none" points="-4,4 -4,-300 1298,-300 1298,4 -4,4"/>
<!-- 140424261569560 -->
<g id="node1" class="node"><title>140424261569560</title>
<polygon fill="none" stroke="black" points="494.5,-249.5 494.5,-295.5 799.5,-295.5 799.5,-249.5 494.5,-249.5"/>
<text text-anchor="middle" x="557" y="-268.8" font-family="Times,serif" font-size="14.00">input_1: InputLayer</text>
<polyline fill="none" stroke="black" points="619.5,-249.5 619.5,-295.5 "/>
<text text-anchor="middle" x="647" y="-280.3" font-family="Times,serif" font-size="14.00">input:</text>
<polyline fill="none" stroke="black" points="619.5,-272.5 674.5,-272.5 "/>
<text text-anchor="middle" x="647" y="-257.3" font-family="Times,serif" font-size="14.00">output:</text>
<polyline fill="none" stroke="black" points="674.5,-249.5 674.5,-295.5 "/>
<text text-anchor="middle" x="737" y="-280.3" font-family="Times,serif" font-size="14.00">(None, 320, 320, 3)</text>
<polyline fill="none" stroke="black" points="674.5,-272.5 799.5,-272.5 "/>
<text text-anchor="middle" x="737" y="-257.3" font-family="Times,serif" font-size="14.00">(None, 320, 320, 3)</text>
</g>
<!-- 140418166345176 -->
<g id="node2" class="node"><title>140418166345176</title>
<polygon fill="none" stroke="black" points="0,-166.5 0,-212.5 310,-212.5 310,-166.5 0,-166.5"/>
<text text-anchor="middle" x="65" y="-185.8" font-family="Times,serif" font-size="14.00">lambda_11: Lambda</text>
<polyline fill="none" stroke="black" points="130,-166.5 130,-212.5 "/>
<text text-anchor="middle" x="157.5" y="-197.3" font-family="Times,serif" font-size="14.00">input:</text>
<polyline fill="none" stroke="black" points="130,-189.5 185,-189.5 "/>
<text text-anchor="middle" x="157.5" y="-174.3" font-family="Times,serif" font-size="14.00">output:</text>
<polyline fill="none" stroke="black" points="185,-166.5 185,-212.5 "/>
<text text-anchor="middle" x="247.5" y="-197.3" font-family="Times,serif" font-size="14.00">(None, 320, 320, 3)</text>
<polyline fill="none" stroke="black" points="185,-189.5 310,-189.5 "/>
<text text-anchor="middle" x="247.5" y="-174.3" font-family="Times,serif" font-size="14.00">(None, 320, 320, 3)</text>
</g>
<!-- 140424261569560&#45;&gt;140418166345176 -->
<g id="edge1" class="edge"><title>140424261569560&#45;&gt;140418166345176</title>
<path fill="none" stroke="black" d="M513.209,-249.473C446.761,-238.534 366.413,-225.306 298.666,-214.152"/>
<polygon fill="black" stroke="black" points="299.2,-210.693 288.765,-212.522 298.063,-217.6 299.2,-210.693"/>
</g>
<!-- 140418118180032 -->
<g id="node3" class="node"><title>140418118180032</title>
<polygon fill="none" stroke="black" points="328,-166.5 328,-212.5 638,-212.5 638,-166.5 328,-166.5"/>
<text text-anchor="middle" x="393" y="-185.8" font-family="Times,serif" font-size="14.00">lambda_22: Lambda</text>
<polyline fill="none" stroke="black" points="458,-166.5 458,-212.5 "/>
<text text-anchor="middle" x="485.5" y="-197.3" font-family="Times,serif" font-size="14.00">input:</text>
<polyline fill="none" stroke="black" points="458,-189.5 513,-189.5 "/>
<text text-anchor="middle" x="485.5" y="-174.3" font-family="Times,serif" font-size="14.00">output:</text>
<polyline fill="none" stroke="black" points="513,-166.5 513,-212.5 "/>
<text text-anchor="middle" x="575.5" y="-197.3" font-family="Times,serif" font-size="14.00">(None, 320, 320, 3)</text>
<polyline fill="none" stroke="black" points="513,-189.5 638,-189.5 "/>
<text text-anchor="middle" x="575.5" y="-174.3" font-family="Times,serif" font-size="14.00">(None, 320, 320, 3)</text>
</g>
<!-- 140424261569560&#45;&gt;140418118180032 -->
<g id="edge2" class="edge"><title>140424261569560&#45;&gt;140418118180032</title>
<path fill="none" stroke="black" d="M602.186,-249.366C582.029,-239.41 558.067,-227.576 536.934,-217.138"/>
<polygon fill="black" stroke="black" points="538.276,-213.897 527.76,-212.607 535.176,-220.173 538.276,-213.897"/>
</g>
<!-- 140418117364760 -->
<g id="node4" class="node"><title>140418117364760</title>
<polygon fill="none" stroke="black" points="656,-166.5 656,-212.5 966,-212.5 966,-166.5 656,-166.5"/>
<text text-anchor="middle" x="721" y="-185.8" font-family="Times,serif" font-size="14.00">lambda_33: Lambda</text>
<polyline fill="none" stroke="black" points="786,-166.5 786,-212.5 "/>
<text text-anchor="middle" x="813.5" y="-197.3" font-family="Times,serif" font-size="14.00">input:</text>
<polyline fill="none" stroke="black" points="786,-189.5 841,-189.5 "/>
<text text-anchor="middle" x="813.5" y="-174.3" font-family="Times,serif" font-size="14.00">output:</text>
<polyline fill="none" stroke="black" points="841,-166.5 841,-212.5 "/>
<text text-anchor="middle" x="903.5" y="-197.3" font-family="Times,serif" font-size="14.00">(None, 320, 320, 3)</text>
<polyline fill="none" stroke="black" points="841,-189.5 966,-189.5 "/>
<text text-anchor="middle" x="903.5" y="-174.3" font-family="Times,serif" font-size="14.00">(None, 320, 320, 3)</text>
</g>
<!-- 140424261569560&#45;&gt;140418117364760 -->
<g id="edge3" class="edge"><title>140424261569560&#45;&gt;140418117364760</title>
<path fill="none" stroke="black" d="M691.814,-249.366C711.971,-239.41 735.933,-227.576 757.066,-217.138"/>
<polygon fill="black" stroke="black" points="758.824,-220.173 766.24,-212.607 755.724,-213.897 758.824,-220.173"/>
</g>
<!-- 140418117401568 -->
<g id="node5" class="node"><title>140418117401568</title>
<polygon fill="none" stroke="black" points="984,-166.5 984,-212.5 1294,-212.5 1294,-166.5 984,-166.5"/>
<text text-anchor="middle" x="1049" y="-185.8" font-family="Times,serif" font-size="14.00">lambda_44: Lambda</text>
<polyline fill="none" stroke="black" points="1114,-166.5 1114,-212.5 "/>
<text text-anchor="middle" x="1141.5" y="-197.3" font-family="Times,serif" font-size="14.00">input:</text>
<polyline fill="none" stroke="black" points="1114,-189.5 1169,-189.5 "/>
<text text-anchor="middle" x="1141.5" y="-174.3" font-family="Times,serif" font-size="14.00">output:</text>
<polyline fill="none" stroke="black" points="1169,-166.5 1169,-212.5 "/>
<text text-anchor="middle" x="1231.5" y="-197.3" font-family="Times,serif" font-size="14.00">(None, 320, 320, 3)</text>
<polyline fill="none" stroke="black" points="1169,-189.5 1294,-189.5 "/>
<text text-anchor="middle" x="1231.5" y="-174.3" font-family="Times,serif" font-size="14.00">(None, 320, 320, 3)</text>
</g>
<!-- 140424261569560&#45;&gt;140418117401568 -->
<g id="edge4" class="edge"><title>140424261569560&#45;&gt;140418117401568</title>
<path fill="none" stroke="black" d="M780.791,-249.473C847.239,-238.534 927.587,-225.306 995.334,-214.152"/>
<polygon fill="black" stroke="black" points="995.937,-217.6 1005.24,-212.522 994.8,-210.693 995.937,-217.6"/>
</g>
<!-- 140420070348168 -->
<g id="node6" class="node"><title>140420070348168</title>
<polygon fill="none" stroke="black" points="500,-83.5 500,-129.5 794,-129.5 794,-83.5 500,-83.5"/>
<text text-anchor="middle" x="554" y="-102.8" font-family="Times,serif" font-size="14.00">model_1: Model</text>
<polyline fill="none" stroke="black" points="608,-83.5 608,-129.5 "/>
<text text-anchor="middle" x="635.5" y="-114.3" font-family="Times,serif" font-size="14.00">input:</text>
<polyline fill="none" stroke="black" points="608,-106.5 663,-106.5 "/>
<text text-anchor="middle" x="635.5" y="-91.3" font-family="Times,serif" font-size="14.00">output:</text>
<polyline fill="none" stroke="black" points="663,-83.5 663,-129.5 "/>
<text text-anchor="middle" x="728.5" y="-114.3" font-family="Times,serif" font-size="14.00">(None, 320, 320, 3)</text>
<polyline fill="none" stroke="black" points="663,-106.5 794,-106.5 "/>
<text text-anchor="middle" x="728.5" y="-91.3" font-family="Times,serif" font-size="14.00">(None, 320, 320, 20)</text>
</g>
<!-- 140418166345176&#45;&gt;140420070348168 -->
<g id="edge5" class="edge"><title>140418166345176&#45;&gt;140420070348168</title>
<path fill="none" stroke="black" d="M288.791,-166.473C355.239,-155.534 435.587,-142.306 503.334,-131.152"/>
<polygon fill="black" stroke="black" points="503.937,-134.6 513.235,-129.522 502.8,-127.693 503.937,-134.6"/>
</g>
<!-- 140418118180032&#45;&gt;140420070348168 -->
<g id="edge6" class="edge"><title>140418118180032&#45;&gt;140420070348168</title>
<path fill="none" stroke="black" d="M527.814,-166.366C547.971,-156.41 571.933,-144.576 593.066,-134.138"/>
<polygon fill="black" stroke="black" points="594.824,-137.173 602.24,-129.607 591.724,-130.897 594.824,-137.173"/>
</g>
<!-- 140418117364760&#45;&gt;140420070348168 -->
<g id="edge7" class="edge"><title>140418117364760&#45;&gt;140420070348168</title>
<path fill="none" stroke="black" d="M766.186,-166.366C746.029,-156.41 722.067,-144.576 700.934,-134.138"/>
<polygon fill="black" stroke="black" points="702.276,-130.897 691.76,-129.607 699.176,-137.173 702.276,-130.897"/>
</g>
<!-- 140418117401568&#45;&gt;140420070348168 -->
<g id="edge8" class="edge"><title>140418117401568&#45;&gt;140420070348168</title>
<path fill="none" stroke="black" d="M1005.21,-166.473C938.761,-155.534 858.413,-142.306 790.666,-131.152"/>
<polygon fill="black" stroke="black" points="791.2,-127.693 780.765,-129.522 790.063,-134.6 791.2,-127.693"/>
</g>
<!-- 140418166350176 -->
<g id="node7" class="node"><title>140418166350176</title>
<polygon fill="none" stroke="black" points="308.5,-0.5 308.5,-46.5 985.5,-46.5 985.5,-0.5 308.5,-0.5"/>
<text text-anchor="middle" x="366" y="-19.8" font-family="Times,serif" font-size="14.00">pred: Concatenate</text>
<polyline fill="none" stroke="black" points="423.5,-0.5 423.5,-46.5 "/>
<text text-anchor="middle" x="451" y="-31.3" font-family="Times,serif" font-size="14.00">input:</text>
<polyline fill="none" stroke="black" points="423.5,-23.5 478.5,-23.5 "/>
<text text-anchor="middle" x="451" y="-8.3" font-family="Times,serif" font-size="14.00">output:</text>
<polyline fill="none" stroke="black" points="478.5,-0.5 478.5,-46.5 "/>
<text text-anchor="middle" x="732" y="-31.3" font-family="Times,serif" font-size="14.00">[(None, 320, 320, 20), (None, 320, 320, 20), (None, 320, 320, 20), (None, 320, 320, 20)]</text>
<polyline fill="none" stroke="black" points="478.5,-23.5 985.5,-23.5 "/>
<text text-anchor="middle" x="732" y="-8.3" font-family="Times,serif" font-size="14.00">(None, 320, 320, 20)</text>
</g>
<!-- 140420070348168&#45;&gt;140418166350176 -->
<g id="edge9" class="edge"><title>140420070348168&#45;&gt;140418166350176</title>
<path fill="none" stroke="black" d="M647,-83.3664C647,-75.1516 647,-65.6579 647,-56.7252"/>
<polygon fill="black" stroke="black" points="650.5,-56.6068 647,-46.6068 643.5,-56.6069 650.5,-56.6068"/>
</g>
</g>
</svg>
